<svg width="1676" height="3514" viewBox="0 0 1676 3514" fill="none" xmlns="http://www.w3.org/2000/svg">
<path d="M1670 3512.5V3337C1670 3330.37 1664.63 3325 1658 3325H861.5H587.5C580.873 3325 575.5 3330.37 575.5 3337V3453.5C575.5 3460.13 580.873 3465.5 587.5 3465.5H643.5C650.127 3465.5 655.5 3460.13 655.5 3453.5V3376.5C655.5 3369.87 650.127 3364.5 643.5 3364.5H258.5C251.873 3364.5 246.5 3359.13 246.5 3352.5V3212.5M246.5 2637.5V2481C246.5 2474.37 251.873 2469 258.5 2469H1662.5C1669.13 2469 1674.5 2463.63 1674.5 2457V1316C1674.5 1309.37 1669.13 1304 1662.5 1304H262C255.373 1304 250 1298.63 250 1292V1016C250 1009.37 255.373 1004 262 1004H718.5C725.127 1004 730.5 998.627 730.5 992V911C730.5 904.373 725.127 899 718.5 899H262C255.373 899 250 893.627 250 887V800C250 793.373 255.373 788 262 788H718.5C725.127 788 730.5 782.627 730.5 776V697C730.5 690.373 725.127 685 718.5 685H259C252.373 685 247 679.627 247 673V591.5C247 584.873 252.373 579.5 259 579.5H718.5C725.127 579.5 730.5 574.127 730.5 567.5V487C730.5 480.373 725.127 475 718.5 475H259C252.373 475 247 469.627 247 463V14C247 7.37259 241.627 2 235 2H31H1M246.5 2637.5H731.5C738.127 2637.5 743.5 2642.87 743.5 2649.5V3200.5C743.5 3207.13 738.127 3212.5 731.5 3212.5H246.5M246.5 2637.5V3212.5" stroke="#373737" stroke-width="3" stroke-linecap="round" stroke-dasharray="20 20"/>
</svg>
