<svg width="320" height="177" viewBox="0 0 320 177" fill="none" xmlns="http://www.w3.org/2000/svg">
<path fill-rule="evenodd" clip-rule="evenodd" d="M13 2C6.92487 2 2 6.92487 2 13V23.25H0V13C0 5.8203 5.8203 0 13 0H23.5V2H13ZM65.5 2H44.5V0H65.5V2ZM107.5 2H86.5V0H107.5V2ZM149.5 2H128.5V0H149.5V2ZM191.5 2H170.5V0H191.5V2ZM233.5 2H212.5V0H233.5V2ZM275.5 2H254.5V0H275.5V2ZM307 2H296.5V0H307C314.18 0 320 5.8203 320 13V23.25H318V13C318 6.92487 313.075 2 307 2ZM2 43.75V64.25H0V43.75H2ZM318 64.25V43.75H320V64.25H318ZM2 84.75V105.25H0V84.75H2ZM318 105.25V84.75H320V105.25H318ZM2 125.75V146.25H0V125.75H2ZM318 146.25V125.75H320V146.25H318ZM2 166.75V177H0V166.75H2ZM318 177V166.75H320V177H318Z" fill="#515151"/>
</svg>
