<svg width="1000" height="199" viewBox="0 0 1000 199" fill="none" xmlns="http://www.w3.org/2000/svg">
<path opacity="0.2" fill-rule="evenodd" clip-rule="evenodd" d="M13 2C6.92487 2 2 6.92487 2 13V22.3H0V13C0 5.8203 5.8203 0 13 0H23.1458V2H13ZM63.7292 2H43.4375V0H63.7292V2ZM104.312 2H84.0208V0H104.312V2ZM144.896 2H124.604V0H144.896V2ZM185.479 2H165.188V0H185.479V2ZM226.063 2H205.771V0H226.063V2ZM266.646 2H246.354V0H266.646V2ZM307.229 2H286.938V0H307.229V2ZM347.812 2H327.521V0H347.812V2ZM388.396 2H368.104V0H388.396V2ZM428.979 2H408.687V0H428.979V2ZM469.562 2H449.271V0H469.562V2ZM510.146 2H489.854V0H510.146V2ZM550.729 2H530.437V0H550.729V2ZM591.312 2H571.021V0H591.312V2ZM631.896 2H611.604V0H631.896V2ZM672.479 2H652.188V0H672.479V2ZM713.063 2H692.771V0H713.063V2ZM753.646 2H733.354V0H753.646V2ZM794.229 2H773.938V0H794.229V2ZM834.813 2H814.521V0H834.813V2ZM875.396 2H855.104V0H875.396V2ZM915.979 2H895.688V0H915.979V2ZM956.563 2H936.271V0H956.563V2ZM987 2H976.855V0H987C994.18 0 1000 5.8203 1000 13V22.3H998V13C998 6.92487 993.075 2 987 2ZM2 40.9V59.5H0V40.9H2ZM998 59.5V40.9H1000V59.5H998ZM998 96.7V78.1H1000V96.7H998ZM2 78.1V96.7H0V78.1H2ZM998 133.9V115.3H1000V133.9H998ZM2 115.3V133.9H0V115.3H2ZM2 152.5V171.1H0V152.5H2ZM998 171.1V152.5H1000V171.1H998ZM2 189.7V199H0V189.7H2ZM998 199V189.7H1000V199H998Z" fill="white"/>
</svg>
