<svg width="78" height="78" viewBox="0 0 78 78" fill="none" xmlns="http://www.w3.org/2000/svg">
<path fill-rule="evenodd" clip-rule="evenodd" d="M22.6035 0.393439C21.5169 1.47968 21.8373 2.33515 24.2945 4.9087C28.098 8.89232 33.3238 11.3279 38.9842 11.7552C41.1164 11.9161 41.1941 11.903 41.8161 11.281C42.6058 10.4914 42.629 9.78259 41.8897 9.04338C41.4143 8.56801 40.9697 8.45299 39.1128 8.32563C36.1737 8.12398 34.4128 7.63948 31.5949 6.25731C29.6933 5.32434 28.9 4.75173 27.3987 3.22813C26.3805 2.19471 25.3061 1.04701 25.0108 0.677525C24.3943 -0.0937767 23.2284 -0.231501 22.6035 0.393439ZM37.7658 0.49957C37.1571 1.10822 37.1322 2.0017 37.7041 2.69994C38.042 3.11212 38.5661 3.27626 40.1108 3.45323C43.2648 3.81407 46.2276 5.12837 49.0669 7.42549L50.6106 8.67463L52.2516 8.0181C54.9831 6.92544 57.3248 6.55028 59.2289 6.90002C61.2636 7.27395 62.691 7.90136 64.3406 9.14655C65.7826 10.2353 66.6451 10.3727 67.3861 9.63179C68.9145 8.1035 66.417 5.6104 61.8051 4.06064C60.0217 3.46137 59.6184 3.41645 57.019 3.5285C54.9831 3.61612 53.7501 3.80272 52.6591 4.18849L51.1381 4.72631L49.5737 3.56405C46.6674 1.40465 42.7583 0.00593708 39.6302 0.00593708C38.5885 0.00593708 38.141 0.124409 37.7658 0.49957ZM61.1098 14.8766C61.0323 15.5894 60.6917 20.5041 60.3525 25.7983C60.0136 31.0925 59.6673 36.2292 59.5829 37.2135L59.4293 39.003H55.1388H50.8481V29.3771C50.8481 24.0829 50.7647 19.7518 50.663 19.7525C50.5613 19.753 45.2573 21.6202 38.8766 23.9017L27.2753 28.0497L27.2077 23.9005C27.1707 21.6184 27.0596 19.7488 26.9608 19.7458C26.8624 19.7431 20.7576 21.8811 13.395 24.4971L0.0083925 29.2537L0.00419625 53.6269L0 78H39H78V58.5015V39.003H76.301H74.6023L74.4488 37.2135C74.3644 36.2292 74.0181 31.0925 73.6791 25.7983C73.34 20.5041 72.9994 15.5894 72.9219 14.8766L72.7809 13.5809H67.0158H61.2507L61.1098 14.8766ZM69.7103 17.8384C69.8125 18.495 71.3584 41.6597 71.3406 42.2733C71.3379 42.375 72.0574 42.4584 72.9399 42.4584H74.5443V58.5015V74.5446H39H3.4557V53.1078V31.671L13.5142 28.0865L23.5728 24.5022L23.6375 33.4802L23.7024 42.4584H25.427H27.1519V37.0803V31.7021L37.2104 28.1107L47.269 24.519L47.3924 33.4271L47.5158 42.335L57.6978 42.3994L67.8797 42.4638V40.7334V39.003H65.4114C63.2257 39.003 62.9428 38.9536 62.9413 38.571C62.9376 37.6265 64.2051 18.5883 64.3216 17.8384L64.4465 17.0363H67.0158H69.5851L69.7103 17.8384ZM8.3924 40.7307V44.1861H10.1203H11.8481V40.7307V37.2753H10.1203H8.3924V40.7307ZM15.3038 40.7307V44.1861H16.9082H18.5127V40.7307V37.2753H16.9082H15.3038V40.7307ZM32.1962 37.5973C32.1283 37.7746 32.1039 39.3019 32.1424 40.9911L32.212 44.0627L33.8782 44.1358L35.5443 44.2086V40.742V37.2753H33.9322C32.8336 37.2753 32.2806 37.3779 32.1962 37.5973ZM39 40.7307V44.1861H40.7278H42.4557V40.7307V37.2753H40.7278H39V40.7307ZM8.3924 52.5779V56.0333H10.1203H11.8481V52.5779V49.1225H10.1203H8.3924V52.5779ZM15.3038 52.5779V56.0333H16.9082H18.5127V52.5779V49.1225H16.9082H15.3038V52.5779ZM23.6962 52.5779V56.0333H25.4241H27.1519V52.5779V49.1225H25.4241H23.6962V52.5779ZM32.1962 49.4445C32.1283 49.6218 32.1039 51.1491 32.1424 52.8383L32.212 55.9099L33.8782 55.983L35.5443 56.0558V52.5892V49.1225H33.9322C32.8336 49.1225 32.2806 49.2251 32.1962 49.4445ZM39 52.5779V56.0333H40.7278H42.4557V52.5779V49.1225H40.7278H39V52.5779ZM52.576 50.8433V52.5779H56.043H59.5098L59.437 50.9119L59.3639 49.2459L55.9699 49.1772L52.576 49.1086V50.8433ZM62.8608 49.2871C62.7703 49.3774 62.6962 50.1549 62.6962 51.0148V52.5779H66.1519H69.6076V50.8502V49.1225H66.3165C64.5062 49.1225 62.9512 49.1965 62.8608 49.2871ZM8.56741 61.1237C8.47115 61.2199 8.3924 62.7796 8.3924 64.5897V67.8805H10.1272H11.8619L11.7933 64.4868L11.7247 61.0931L10.2336 61.021C9.41332 60.9813 8.66368 61.0274 8.56741 61.1237ZM15.3038 64.4251V67.8805H16.9082H18.5127V64.4251V60.9697H16.9082H15.3038V64.4251ZM23.8712 61.1237C23.7749 61.2199 23.6962 62.7796 23.6962 64.5897V67.8805H25.431H27.1657L27.0971 64.4868L27.0285 61.0931L25.5373 61.021C24.7171 60.9813 23.9675 61.0274 23.8712 61.1237ZM32.1962 61.2917C32.1283 61.469 32.1039 62.9963 32.1424 64.6855L32.212 67.7571L33.8782 67.8302L35.5443 67.903V64.4364V60.9697H33.9322C32.8336 60.9697 32.2806 61.0723 32.1962 61.2917ZM39 64.4137V67.8805H40.7348H42.4695L42.4009 64.4868L42.3323 61.0931L40.6661 61.02L39 60.9472V64.4137Z" fill="white"/>
</svg>
