<svg width="322" height="543" viewBox="0 0 322 543" fill="none" xmlns="http://www.w3.org/2000/svg">
<path fill-rule="evenodd" clip-rule="evenodd" d="M275.76 5.00033H271.429V7.00033H275.76C276.228 9.46785 278.396 11.3337 281 11.3337C283.946 11.3337 286.333 8.94584 286.333 6.00033C286.333 3.05481 283.946 0.666992 281 0.666992C278.396 0.666992 276.228 2.5328 275.76 5.00033ZM0 18.0003C0 10.8206 5.82031 5.00033 13 5.00033H22.5715V7.00033H13C6.92487 7.00033 2 11.9252 2 18.0003V27.8753H0V18.0003ZM41.7143 5.00033H60.8572V7.00033H41.7143V5.00033ZM80 5.00033H99.1429V7.00033H80V5.00033ZM118.286 5.00033H137.429V7.00033H118.286V5.00033ZM156.571 5.00033H175.714V7.00033H156.571V5.00033ZM194.857 5.00033H214V7.00033H194.857V5.00033ZM233.143 5.00033H252.286V7.00033H233.143V5.00033ZM0 67.3753V47.6253H2V67.3753H0ZM0 97.0003V87.1253H2V97.0003C2 103.075 6.92487 108 13 108H23.5714V110H13C5.8203 110 0 104.18 0 97.0003ZM65.8571 110H44.7143V108H65.8571V110ZM108.143 110H87V108H108.143V110ZM150.429 110H129.286V108H150.429V110ZM192.714 110H171.571V108H192.714V110ZM235 110H213.857V108H235V110ZM277.286 110H256.143V108H277.286V110ZM309 110H298.429V108H309C316.18 108 322 113.821 322 121V130.875H320V121C320 114.925 315.075 110 309 110ZM320 170.375V150.625H322V170.375H320ZM320 200V190.125H322V200C322 207.18 316.18 213 309 213H298.429V211H309C315.075 211 320 206.075 320 200ZM0 224C0 216.821 5.82031 211 13 211H23.5715V213H13C6.92487 213 2 217.925 2 224V233.875H0V224ZM44.7143 211H65.8572V213H44.7143V211ZM87 211H108.143V213H87V211ZM129.286 211H150.429V213H129.286V211ZM171.571 211H192.714V213H171.571V211ZM213.857 211H235V213H213.857V211ZM256.143 211H277.286V213H256.143V211ZM0 273.375V253.625H2V273.375H0ZM0 303V293.125H2V303C2 309.075 6.92487 314 13 314H23.5714V316H13C5.8203 316 0 310.18 0 303ZM65.8571 316H44.7143V314H65.8571V316ZM108.143 316H87V314H108.143V316ZM150.429 316H129.286V314H150.429V316ZM192.714 316H171.571V314H192.714V316ZM235 316H213.857V314H235V316ZM277.286 316H256.143V314H277.286V316ZM309 316H298.429V314H309C316.18 314 322 319.821 322 327V336.875H320V327C320 320.925 315.075 316 309 316ZM320 376.375V356.625H322V376.375H320ZM320 406V396.125H322V406C322 413.18 316.18 419 309 419H298.429V417H309C315.075 417 320 412.075 320 406ZM0 430C0 422.821 5.82031 417 13 417H23.5715V419H13C6.92487 419 2 423.925 2 430V439.875H0V430ZM44.7143 417H65.8572V419H44.7143V417ZM87 417H108.143V419H87V417ZM129.286 417H150.429V419H129.286V417ZM171.571 417H192.714V419H171.571V417ZM213.857 417H235V419H213.857V417ZM256.143 417H277.286V419H256.143V417ZM0 479.375V459.625H2V479.375H0ZM0 509V499.125H2V509C2 515.075 6.92487 520 13 520H23.6667V522H13C5.8203 522 0 516.18 0 509ZM66.3333 522H45V520H66.3333V522ZM109 522H87.6667V520H109V522ZM151.667 522H130.333V520H151.667V522ZM194.333 522H173V520H194.333V522ZM237 522H215.667V520H237V522ZM269 522H258.333V520H269C270.761 520 272.442 520.351 273.977 520.987L273.21 522.835C271.915 522.297 270.493 522 269 522ZM279.932 531.774C279.816 530.727 279.554 529.726 279.166 528.79L281.013 528.024C281.497 529.191 281.816 530.442 281.941 531.75C284.438 532.194 286.333 534.376 286.333 537C286.333 539.946 283.946 542.334 281 542.334C278.054 542.334 275.667 539.946 275.667 537C275.667 534.42 277.499 532.268 279.932 531.774Z" fill="#515151"/>
</svg>
