<svg width="39" height="78" viewBox="0 0 39 78" fill="none" xmlns="http://www.w3.org/2000/svg">
<path fill-rule="evenodd" clip-rule="evenodd" d="M12.9812 0.575179C12.2853 0.934183 11.63 1.50278 11.2379 2.08772L10.6098 3.02486L10.5001 7.51048L10.3904 11.9959L8.62311 12.9332C3.13509 15.8439 -0.245401 21.4165 0.0139275 27.1252C0.120994 29.4847 0.524906 30.5097 1.90338 31.9191L2.76869 32.8043L1.92752 33.7932C0.453821 35.526 0.0786496 36.5941 0.0786496 39.0568C0.0786496 41.5189 0.45382 42.5875 1.92642 44.319L2.7665 45.3065L1.92927 46.2832C0.460621 47.9958 0.0786496 49.0821 0.0786496 51.5459C0.0786496 54.0096 0.460621 55.0959 1.92927 56.8085L2.7665 57.7852L1.92642 58.7727C1.46437 59.3159 0.859706 60.2367 0.582606 60.8191C0.10015 61.8323 0.0786496 62.1066 0.0786496 67.214V72.5502L0.689453 73.7501C1.50452 75.351 2.81476 76.6662 4.32444 77.3987L5.5636 78H19.4954H33.4272L34.6663 77.3987C36.176 76.6662 37.4863 75.351 38.3013 73.7501L38.9121 72.5502V67.214C38.9121 62.1066 38.8906 61.8323 38.4082 60.8191C38.1311 60.2367 37.5264 59.3159 37.0644 58.7727L36.2243 57.7852L37.0615 56.8085C38.5302 55.0959 38.9121 54.0096 38.9121 51.5459C38.9121 49.0837 38.537 48.0151 37.0644 46.2836L36.2243 45.2961L37.0615 44.3194C38.5302 42.6068 38.9121 41.5205 38.9121 39.0568C38.9121 36.5889 38.5374 35.5264 37.0501 33.7777L36.1958 32.7732L36.9533 32.0336C38.3959 30.6253 38.8854 29.4443 38.983 27.1363C39.0894 24.6167 38.7087 22.87 37.4977 20.3231C35.9628 17.0951 33.3078 14.3806 30.1362 12.7968L28.6004 12.0297L28.4907 7.52728L28.381 3.02486L27.7529 2.08772C27.3608 1.50278 26.7055 0.934183 26.0095 0.575179C24.9068 0.00658516 24.8331 0 19.4954 0C14.1576 0 14.0839 0.00658516 12.9812 0.575179ZM25.1109 3.65658C25.4742 4.0719 25.5387 4.57577 25.6039 7.51684L25.6787 10.8996H19.4954H13.3121L13.3869 7.51684C13.4913 2.81072 12.9727 3.17904 19.4954 3.17904C24.4992 3.17904 24.7085 3.19675 25.1109 3.65658ZM25.5288 14.419C30.0978 15.4086 34.1064 19.0134 35.5027 23.3886C36.9612 27.9592 35.6666 30.7266 31.8284 31.2413C30.6018 31.406 30.0265 31.9073 30.0265 32.8122C30.0265 33.7162 30.602 34.2185 31.8284 34.3852C34.35 34.7278 36.0527 36.611 36.0527 39.0568C36.0527 41.5026 34.35 43.3857 31.8284 43.7284C30.602 43.895 30.0265 44.3973 30.0265 45.3013C30.0265 46.2053 30.602 46.7076 31.8284 46.8743C33.4316 47.0922 34.7117 47.9224 35.4472 49.2213C37.112 52.1617 35.2925 55.7535 31.894 56.2356C30.6917 56.4064 30.0265 56.96 30.0265 57.7904C30.0265 58.6231 30.729 59.2128 31.9304 59.3881C33.4649 59.612 34.733 60.4497 35.4507 61.7136C36.036 62.744 36.063 62.9282 36.1389 66.4126C36.2322 70.7073 36.0011 72.1022 35.0009 73.2814C33.5571 74.9833 34.1117 74.9245 19.4954 74.9245C4.87908 74.9245 5.43372 74.9833 3.98986 73.2814C2.99379 72.1072 2.7643 70.7195 2.85448 66.4192C2.92797 62.925 2.95408 62.7449 3.54009 61.7136C4.27596 60.4179 5.54517 59.5988 7.15643 59.3799C8.39845 59.2112 8.96427 58.6978 8.96427 57.7398C8.96427 56.9579 8.27493 56.4027 7.09676 56.2356C3.69828 55.7535 1.87881 52.1617 3.5436 49.2213C4.25994 47.956 5.53399 47.1106 7.07394 46.8783C8.28985 46.6949 8.96427 46.1322 8.96427 45.3013C8.96427 44.4704 8.28985 43.9078 7.07394 43.7243C4.61339 43.353 2.93807 41.4624 2.93807 39.0568C2.93807 36.6511 4.61339 34.7605 7.07394 34.3893C8.28985 34.2058 8.96427 33.6431 8.96427 32.8122C8.96427 31.9839 8.29138 31.4196 7.07899 31.2313C3.98152 30.7506 2.5392 28.6777 3.0289 25.4107C3.46265 22.5169 4.47363 20.5187 6.64743 18.2588C8.4228 16.4132 10.9641 14.9626 13.3522 14.4317C15.3771 13.9816 23.4698 13.9732 25.5288 14.419Z" fill="white"/>
</svg>
