<svg width="1004" height="826" viewBox="0 0 1004 826" fill="none" xmlns="http://www.w3.org/2000/svg">
<path d="M353.834 820C353.834 822.945 351.446 825.333 348.5 825.333C345.555 825.333 343.167 822.945 343.167 820C343.167 817.055 345.555 814.667 348.5 814.667C351.446 814.667 353.834 817.055 353.834 820ZM742.334 6C742.334 8.94552 739.946 11.3333 737 11.3333C734.055 11.3333 731.667 8.94552 731.667 6C731.667 3.05448 734.055 0.666667 737 0.666667C739.946 0.666667 742.334 3.05448 742.334 6ZM1.93329 808.067L2.93329 808.062L1.93329 808.067ZM1.18427 674.567L2.18427 674.562L1.18427 674.567ZM990.455 504.779L990.456 505.779L990.455 504.779ZM1.64581 493.308L2.64581 493.311L1.64581 493.308ZM13.6526 505.338L13.652 504.338L13.6526 505.338ZM13.9641 348.566L13.9646 349.566L13.9641 348.566ZM1.97095 360.536L2.97095 360.539L1.97095 360.536ZM990.007 348.007L990.006 347.007L990.007 348.007ZM989.994 191.006L989.994 190.006L989.994 191.006ZM14.0062 191.494L14.0067 192.494L14.0062 191.494ZM725.008 34.0082L725.008 33.0082L725.008 34.0082ZM738 6V10.002H736V6H738ZM738 18.0061V22.0082H736V18.0061H738ZM738 22.0082C738 23.7682 737.65 25.449 737.014 26.9826L735.167 26.2168C735.703 24.9217 736 23.5008 736 22.0082H738ZM729.983 34.0188C728.45 34.6555 726.769 35.007 725.009 35.0082L725.008 33.0082C726.5 33.0071 727.921 32.7094 729.216 32.1717L729.983 34.0188ZM725.009 35.0082L715.134 35.0149L715.133 33.0149L725.008 33.0082L725.009 35.0082ZM695.383 35.0283L675.633 35.0417L675.632 33.0417L695.382 33.0283L695.383 35.0283ZM655.883 35.0552L636.132 35.0686L636.131 33.0686L655.881 33.0552L655.883 35.0552ZM616.382 35.0821L596.631 35.0955L596.63 33.0955L616.38 33.0821L616.382 35.0821ZM576.881 35.1089L557.13 35.1224L557.129 33.1224L576.879 33.1089L576.881 35.1089ZM537.38 35.1358L517.629 35.1492L517.628 33.1492L537.378 33.1358L537.38 35.1358ZM497.879 35.1627L478.128 35.1761L478.127 33.1761L497.878 33.1627L497.879 35.1627ZM458.378 35.1895L438.628 35.203L438.626 33.203L458.377 33.1895L458.378 35.1895ZM418.877 35.2164L399.127 35.2298L399.125 33.2298L418.876 33.2164L418.877 35.2164ZM379.376 35.2433L359.626 35.2567L359.624 33.2567L379.375 33.2433L379.376 35.2433ZM339.875 35.2702L320.125 35.2836L320.123 33.2836L339.874 33.2702L339.875 35.2702ZM300.374 35.297L280.624 35.3105L280.622 33.3105L300.373 33.297L300.374 35.297ZM260.873 35.3239L241.123 35.3373L241.122 33.3373L260.872 33.3239L260.873 35.3239ZM221.372 35.3508L201.622 35.3642L201.621 33.3642L221.371 33.3508L221.372 35.3508ZM181.872 35.3776L162.121 35.3911L162.12 33.3911L181.87 33.3776L181.872 35.3776ZM142.371 35.4045L122.62 35.4179L122.619 33.4179L142.369 33.4045L142.371 35.4045ZM102.87 35.4314L83.1192 35.4448L83.1179 33.4448L102.868 33.4314L102.87 35.4314ZM63.3687 35.4583L43.6182 35.4717L43.6169 33.4717L63.3673 33.4583L63.3687 35.4583ZM23.8677 35.4851L13.9927 35.4918L13.9914 33.4918L23.8663 33.4851L23.8677 35.4851ZM13.9927 35.4918C7.92053 35.496 3.00024 40.4196 3.00024 46.4918H1.00024C1.00024 39.3156 6.81512 33.4967 13.9914 33.4918L13.9927 35.4918ZM3.00024 46.4918V57.5754H1.00024V46.4918H3.00024ZM3.00024 79.7424V101.909H1.00024V79.7424H3.00024ZM3.00024 124.076V146.243H1.00024V124.076H3.00024ZM3.00024 168.41V179.494H1.00024V168.41H3.00024ZM3.00024 179.494C3.00024 185.571 7.92847 190.497 14.0057 190.494L14.0067 192.494C6.82452 192.498 1.00024 186.676 1.00024 179.494H3.00024ZM14.0057 190.494L24.1723 190.489L24.1733 192.489L14.0067 192.494L14.0057 190.494ZM44.5054 190.479L64.8384 190.469L64.8394 192.469L44.5063 192.479L44.5054 190.479ZM85.1715 190.458L105.505 190.448L105.506 192.448L85.1725 192.458L85.1715 190.458ZM125.838 190.438L146.171 190.428L146.172 192.428L125.839 192.438L125.838 190.438ZM166.504 190.418L186.837 190.408L186.838 192.408L166.505 192.418L166.504 190.418ZM207.17 190.397L227.503 190.387L227.504 192.387L207.171 192.397L207.17 190.397ZM247.836 190.377L268.169 190.367L268.17 192.367L247.837 192.377L247.836 190.377ZM288.502 190.357L308.835 190.347L308.836 192.347L288.503 192.357L288.502 190.357ZM329.168 190.336L349.502 190.326L349.503 192.326L329.169 192.336L329.168 190.336ZM369.835 190.316L390.168 190.306L390.169 192.306L369.836 192.316L369.835 190.316ZM410.501 190.296L430.834 190.286L430.835 192.286L410.502 192.296L410.501 190.296ZM451.167 190.275L471.5 190.265L471.501 192.265L451.168 192.275L451.167 190.275ZM491.833 190.255L512.166 190.245L512.167 192.245L491.834 192.255L491.833 190.255ZM532.499 190.235L552.832 190.225L552.833 192.225L532.5 192.235L532.499 190.235ZM573.165 190.214L593.498 190.204L593.499 192.204L573.166 192.214L573.165 190.214ZM613.831 190.194L634.164 190.184L634.165 192.184L613.832 192.194L613.831 190.194ZM654.498 190.174L674.831 190.164L674.832 192.164L654.499 192.174L654.498 190.174ZM695.164 190.153L715.497 190.143L715.498 192.143L695.165 192.153L695.164 190.153ZM735.83 190.133L756.163 190.123L756.164 192.123L735.831 192.133L735.83 190.133ZM776.496 190.113L796.829 190.103L796.83 192.103L776.497 192.113L776.496 190.113ZM817.162 190.092L837.495 190.082L837.496 192.082L817.163 192.092L817.162 190.092ZM857.828 190.072L878.161 190.062L878.162 192.062L857.829 192.072L857.828 190.072ZM898.494 190.052L918.827 190.042L918.828 192.042L898.495 192.052L898.494 190.052ZM939.16 190.031L959.494 190.021L959.495 192.021L939.161 192.031L939.16 190.031ZM979.827 190.011L989.994 190.006L989.995 192.006L979.828 192.011L979.827 190.011ZM989.994 190.006C997.176 190.002 1003 195.824 1003 203.006H1001C1001 196.929 996.072 192.003 989.995 192.006L989.994 190.006ZM1003 203.006V214.089H1001V203.006H1003ZM1003 236.256V258.423H1001V236.256H1003ZM1003 280.59V302.757H1001V280.59H1003ZM1003 324.923V336.007H1001V324.923H1003ZM1003 336.007C1003 343.184 997.184 349.003 990.007 349.007L990.006 347.007C996.079 347.003 1001 342.08 1001 336.007H1003ZM990.007 349.007L979.84 349.013L979.839 347.013L990.006 347.007L990.007 349.007ZM959.506 349.024L939.172 349.036L939.171 347.036L959.505 347.024L959.506 349.024ZM918.838 349.048L898.503 349.059L898.502 347.059L918.837 347.048L918.838 349.048ZM878.169 349.071L857.835 349.083L857.834 347.083L878.168 347.071L878.169 349.071ZM837.501 349.094L817.167 349.106L817.165 347.106L837.5 347.094L837.501 349.094ZM796.832 349.118L776.498 349.129L776.497 347.129L796.831 347.118L796.832 349.118ZM756.164 349.141L735.83 349.152L735.828 347.152L756.163 347.141L756.164 349.141ZM715.495 349.164L695.161 349.176L695.16 347.176L715.494 347.164L715.495 349.164ZM674.827 349.187L654.493 349.199L654.492 347.199L674.826 347.187L674.827 349.187ZM634.158 349.211L613.824 349.222L613.823 347.222L634.157 347.211L634.158 349.211ZM593.49 349.234L573.156 349.246L573.155 347.246L593.489 347.234L593.49 349.234ZM552.822 349.257L532.487 349.269L532.486 347.269L552.82 347.257L552.822 349.257ZM512.153 349.281L491.819 349.292L491.818 347.292L512.152 347.281L512.153 349.281ZM471.485 349.304L451.15 349.315L451.149 347.315L471.484 347.304L471.485 349.304ZM430.816 349.327L410.482 349.339L410.481 347.339L430.815 347.327L430.816 349.327ZM390.148 349.35L369.814 349.362L369.812 347.362L390.147 347.35L390.148 349.35ZM349.479 349.374L329.145 349.385L329.144 347.385L349.478 347.374L349.479 349.374ZM308.811 349.397L288.477 349.409L288.476 347.409L308.81 347.397L308.811 349.397ZM268.142 349.42L247.808 349.432L247.807 347.432L268.141 347.42L268.142 349.42ZM227.474 349.444L207.14 349.455L207.139 347.455L227.473 347.444L227.474 349.444ZM186.805 349.467L166.471 349.479L166.47 347.479L186.804 347.467L186.805 349.467ZM146.137 349.49L125.803 349.502L125.802 347.502L146.136 347.49L146.137 349.49ZM105.469 349.513L85.1344 349.525L85.1332 347.525L105.467 347.513L105.469 349.513ZM64.8002 349.537L44.4659 349.548L44.4648 347.548L64.799 347.537L64.8002 349.537ZM24.1317 349.56L13.9646 349.566L13.9634 347.566L24.1306 347.56L24.1317 349.56ZM13.9646 349.566C7.90247 349.569 2.98578 354.477 2.97095 360.539L0.970947 360.534C0.988464 353.37 6.79907 347.57 13.9634 347.566L13.9646 349.566ZM2.97095 360.539L2.94385 371.603L0.943848 371.598L0.970947 360.534L2.97095 360.539ZM2.88965 393.732L2.83545 415.86L0.835449 415.856L0.889648 393.727L2.88965 393.732ZM2.78125 437.989L2.72711 460.118L0.727112 460.113L0.781311 437.984L2.78125 437.989ZM2.67291 482.246L2.64581 493.311L0.645813 493.306L0.672913 482.241L2.67291 482.246ZM2.64581 493.311C2.63092 499.399 7.56396 504.341 13.652 504.338L13.6532 506.338C6.45819 506.342 0.628174 500.501 0.645813 493.306L2.64581 493.311ZM13.652 504.338L23.8271 504.332L23.8282 506.332L13.6532 506.338L13.652 504.338ZM44.1771 504.32L64.5272 504.308L64.5283 506.308L44.1783 506.32L44.1771 504.32ZM84.8773 504.297L105.227 504.285L105.228 506.285L84.8784 506.297L84.8773 504.297ZM125.577 504.274L145.927 504.262L145.929 506.262L125.578 506.274L125.577 504.274ZM166.277 504.25L186.628 504.239L186.629 506.239L166.279 506.25L166.277 504.25ZM206.978 504.227L227.328 504.215L227.329 506.215L206.979 506.227L206.978 504.227ZM247.678 504.204L268.028 504.192L268.029 506.192L247.679 506.204L247.678 504.204ZM288.378 504.18L308.728 504.169L308.729 506.169L288.379 506.18L288.378 504.18ZM329.078 504.157L349.428 504.145L349.429 506.145L329.079 506.157L329.078 504.157ZM369.778 504.134L390.128 504.122L390.129 506.122L369.779 506.134L369.778 504.134ZM410.478 504.11L430.828 504.099L430.829 506.099L410.479 506.11L410.478 504.11ZM451.178 504.087L471.528 504.076L471.529 506.076L451.179 506.087L451.178 504.087ZM491.878 504.064L512.228 504.052L512.23 506.052L491.879 506.064L491.878 504.064ZM532.578 504.041L552.929 504.029L552.93 506.029L532.58 506.041L532.578 504.041ZM573.279 504.017L593.629 504.006L593.63 506.006L573.28 506.017L573.279 504.017ZM613.979 503.994L634.329 503.982L634.33 505.982L613.98 505.994L613.979 503.994ZM654.679 503.971L675.029 503.959L675.03 505.959L654.68 505.971L654.679 503.971ZM695.379 503.947L715.729 503.936L715.73 505.936L695.38 505.947L695.379 503.947ZM736.079 503.924L756.429 503.913L756.43 505.913L736.08 505.924L736.079 503.924ZM776.779 503.901L797.129 503.889L797.13 505.889L776.78 505.901L776.779 503.901ZM817.479 503.878L837.829 503.866L837.83 505.866L817.48 505.878L817.479 503.878ZM858.179 503.854L878.529 503.843L878.53 505.843L858.18 505.854L858.179 503.854ZM898.879 503.831L919.229 503.819L919.23 505.819L898.88 505.831L898.879 503.831ZM939.579 503.808L959.929 503.796L959.93 505.796L939.58 505.808L939.579 503.808ZM980.279 503.784L990.454 503.779L990.456 505.779L980.28 505.784L980.279 503.784ZM990.454 503.779C997.653 503.774 1003.48 509.621 1003.46 516.82L1001.46 516.813C1001.48 510.722 996.547 505.775 990.456 505.779L990.454 503.779ZM1003.46 516.82L1003.43 527.963L1001.43 527.957L1001.46 516.813L1003.46 516.82ZM1003.36 550.25L1003.29 572.537L1001.29 572.531L1001.36 550.244L1003.36 550.25ZM1003.21 594.824L1003.14 617.111L1001.14 617.104L1001.21 594.818L1003.21 594.824ZM1003.07 639.398L1003.04 650.541L1001.04 650.535L1001.07 639.391L1003.07 639.398ZM1003.04 650.541C1003.02 657.705 997.202 663.5 990.038 663.5V661.5C996.1 661.5 1001.02 656.596 1001.04 650.535L1003.04 650.541ZM990.038 663.5H979.863V661.5H990.038V663.5ZM959.512 663.5H939.16V661.5H959.512V663.5ZM918.809 663.5H898.458V661.5H918.809V663.5ZM878.107 663.5H857.756V661.5H878.107V663.5ZM837.405 663.5H817.054V661.5H837.405V663.5ZM796.703 663.5H776.351V661.5H796.703V663.5ZM756 663.5H735.649V661.5H756V663.5ZM715.298 663.5H694.947V661.5H715.298V663.5ZM674.596 663.5H654.245V661.5H674.596V663.5ZM633.893 663.5H613.542V661.5H633.893V663.5ZM593.191 663.5H572.84V661.5H593.191V663.5ZM552.489 663.5H532.138V661.5H552.489V663.5ZM511.787 663.5H491.436V661.5H511.787V663.5ZM471.084 663.5H450.733V661.5H471.084V663.5ZM430.382 663.5H410.031V661.5H430.382V663.5ZM389.68 663.5H369.329V661.5H389.68V663.5ZM348.978 663.5H328.626V661.5H348.978V663.5ZM308.275 663.5H287.924V661.5H308.275V663.5ZM267.573 663.5H247.222V661.5H267.573V663.5ZM226.871 663.5H206.52V661.5H226.871V663.5ZM186.169 663.5H165.817V661.5H186.169V663.5ZM145.466 663.5H125.115V661.5H145.466V663.5ZM104.764 663.5H84.4128V661.5H104.764V663.5ZM64.0617 663.5H43.7106V661.5H64.0617V663.5ZM23.3594 663.5H13.1841V661.5H23.3594V663.5ZM13.1841 663.5C7.08484 663.5 2.15002 668.463 2.18427 674.562L0.184326 674.573C0.14386 667.365 5.97589 661.5 13.1841 661.5V663.5ZM2.18427 674.562L2.2467 685.687L0.246704 685.698L0.184326 674.573L2.18427 674.562ZM2.37152 707.937L2.49634 730.187L0.496399 730.198L0.371521 707.948L2.37152 707.937ZM2.62122 752.437L2.74603 774.687L0.746033 774.698L0.621216 752.448L2.62122 752.437ZM2.87085 796.937L2.93329 808.062L0.933289 808.073L0.870911 796.948L2.87085 796.937ZM2.93329 808.062C2.96722 814.113 7.88208 819 13.9331 819V821C6.78186 821 0.97345 815.224 0.933289 808.073L2.93329 808.062ZM13.9331 819H24.3883V821H13.9331V819ZM45.2988 819H66.2092V821H45.2988V819ZM87.1197 819H108.03V821H87.1197V819ZM128.941 819H149.851V821H128.941V819ZM170.761 819H191.672V821H170.761V819ZM212.582 819H233.493V821H212.582V819ZM254.403 819H275.314V821H254.403V819ZM296.224 819H317.135V821H296.224V819ZM338.045 819H348.5V821H338.045V819Z" fill="#373737"/>
</svg>
