<svg width="75" height="78" viewBox="0 0 75 78" fill="none" xmlns="http://www.w3.org/2000/svg">
<path fill-rule="evenodd" clip-rule="evenodd" d="M0.420748 0.472391C0.0355921 0.904748 0 2.96762 0 24.8396C0 47.6606 0.0208468 48.7536 0.464983 49.162C0.891324 49.554 3.16107 49.5894 27.9031 49.5894H54.8764L55.4067 48.9044C55.9226 48.2381 55.9353 47.994 55.8702 40.0584L55.8031 31.8973L54.0911 31.8212L52.3791 31.7447L52.3115 38.9238L52.2439 46.1026H27.838H3.43208V24.7947V3.48675L27.9015 3.42089L52.371 3.35503V12.2669V21.1788H54.1506H55.9302V11.27C55.9302 1.63645 55.9154 1.34201 55.4032 0.680563L54.8764 0H27.8588C2.00764 0 0.823445 0.0204041 0.420748 0.472391ZM19.1942 9.0932C17.9719 9.52711 16.8149 10.5385 16.2472 11.6693C15.6724 12.8137 15.5364 14.9174 15.9655 16.0277C16.3667 17.0665 17.5166 18.3142 18.5805 18.8657C19.4889 19.3365 20.1188 19.3709 27.838 19.3709C35.5352 19.3709 36.1891 19.3355 37.0881 18.8695C40.3905 17.1579 41.0855 13.0575 38.5158 10.4471C37.8823 9.80346 37.0115 9.22079 36.4439 9.06066C35.1475 8.69493 20.2366 8.72283 19.1942 9.0932ZM36.1004 12.9139C36.7413 13.565 36.7502 14.4876 36.1228 15.2743L35.6367 15.8841H27.8377H20.039L19.5529 15.2743C18.9286 14.4907 18.9392 13.9238 19.5941 13.0779L20.1209 12.3974H27.8565C35.253 12.3974 35.6143 12.4201 36.1004 12.9139ZM61.0112 15.888L59.8847 17.0538L63.5003 20.7338C65.4892 22.7577 67.1162 24.4995 67.1162 24.6043C67.1162 24.709 62.1916 24.7947 56.1727 24.7947H45.2295L45.3045 26.5381L45.3797 28.2815L56.3054 28.3489L67.2311 28.4163L63.5542 32.1585L59.8771 35.9009L61.1505 37.1946L62.4239 38.4883L67.8207 32.9837C72.7606 27.9454 73.2177 27.4036 73.2177 26.5866C73.2177 25.7689 72.7652 25.2348 67.813 20.2079C64.8406 17.1907 62.3477 14.7219 62.2732 14.7219C62.1984 14.7219 61.6307 15.2467 61.0112 15.888ZM0 55.0094V56.8134L32.6048 56.8819L65.2095 56.9503L66.6439 57.6658C70.0325 59.3564 72.0424 63.2502 71.4467 66.9697C70.816 70.9061 67.9994 73.7521 64.0899 74.4027C63.2827 74.537 49.1133 74.6401 31.3336 74.6408L0 74.6424V76.3212V78H32.3874C63.9762 78 64.8149 77.9873 66.4087 77.4873C68.1809 76.9312 70.6566 75.4136 71.7302 74.2255C75.3184 70.2542 76.0399 64.1418 73.4645 59.5308C72.4898 57.7853 70.41 55.7333 68.6495 54.78C65.598 53.1278 67.3969 53.2053 32.1065 53.2053H0V55.0094ZM7.83124 60.9642C6.31172 61.7794 5.08227 63.8451 5.08609 65.5766C5.09219 68.4693 7.60167 71.0187 10.449 71.0249C12.2083 71.0288 14.2063 69.7651 15.0282 68.1283C15.7919 66.6076 15.6353 64.0186 14.6921 62.5707C13.3841 60.5626 10.0392 59.7795 7.83124 60.9642ZM25.5499 60.8663C22.8193 62.3287 21.8944 65.3005 23.2865 68.1384C24.9871 71.6055 30.096 71.9165 32.2036 68.6813C33.0052 67.4506 33.2655 65.3705 32.7977 63.9306C32.3991 62.7035 31.1246 61.2318 30.0747 60.786C28.967 60.316 26.4957 60.3596 25.5499 60.8663ZM43.2188 60.7266C42.3107 61.0934 41.2208 62.2115 40.6264 63.3861C39.8917 64.8376 40.0625 67.2202 41.0047 68.6669C42.4599 70.901 45.7204 71.6019 48.088 70.1899C50.8138 68.5641 51.4062 64.3841 49.2445 62.0296C47.9301 60.5982 45.0688 59.9794 43.2188 60.7266ZM60.2948 60.9913C58.6822 61.8023 57.873 63.1862 57.7533 65.3382C57.6399 67.3788 58.2121 68.804 59.5506 69.8136C61.8471 71.5459 64.5488 71.3783 66.5142 69.3818C68.4794 67.385 68.6444 64.6403 66.9393 62.3073C65.584 60.4526 62.5577 59.8534 60.2948 60.9913ZM11.3546 64.1762C12.0405 64.6641 12.2993 65.7096 11.9167 66.4475C11.5244 67.2045 11.2041 67.4018 10.3598 67.4067C8.75485 67.4158 8.04912 65.3405 9.31365 64.3301C10.1063 63.6966 10.6257 63.6576 11.3546 64.1762ZM29.1711 64.3637C29.6293 64.7498 29.5649 66.3824 29.0697 66.9382C28.5455 67.5268 27.2675 67.5506 26.6505 66.9831C25.813 66.2132 26.1514 64.365 27.2024 63.9685C27.676 63.7901 28.7453 64.0044 29.1711 64.3637ZM46.7144 64.5039C47.1631 65.1006 47.109 66.3798 46.6115 66.9382C46.0557 67.5619 44.6943 67.5516 44.1312 66.9193C43.4654 66.1721 43.6738 64.5463 44.4899 64.1212C45.2381 63.7312 46.2665 63.9081 46.7144 64.5039ZM63.904 64.3301C65.1686 65.3405 64.4628 67.4158 62.8579 67.4067C62.0136 67.4018 61.6933 67.2045 61.301 66.4475C60.9184 65.7096 61.1772 64.6641 61.8631 64.1762C62.592 63.6576 63.1114 63.6966 63.904 64.3301Z" fill="white"/>
</svg>
