<svg width="129" height="78" viewBox="0 0 129 78" fill="none" xmlns="http://www.w3.org/2000/svg">
<path d="M13.0349 15.5726L15.5252 17.3033C14.641 18.6325 13.5402 19.8026 12.2687 20.7646C11.0311 21.4233 9.64654 21.7542 8.24601 21.7261C7.15056 21.779 6.05624 21.601 5.03347 21.2036C4.01071 20.8062 3.08218 20.1981 2.30772 19.4186C1.5351 18.5986 0.933714 17.6318 0.538941 16.575C0.144167 15.5182 -0.035984 14.3927 0.00907173 13.265C-0.0436225 12.1653 0.13368 11.0667 0.529587 10.04C0.925495 9.01329 1.5312 8.08116 2.30772 7.3037C3.05756 6.47941 3.97716 5.82883 5.00261 5.39714C6.02806 4.96545 7.13479 4.76301 8.24601 4.80384C9.79225 4.77539 11.3165 5.17457 12.6518 5.95764C13.7882 6.74173 14.7104 7.79967 15.3337 9.03444L12.8434 10.9574C12.549 10.168 12.0605 9.46602 11.4234 8.91689C10.7863 8.36776 10.0213 7.98924 9.19935 7.81655C8.37745 7.64386 7.52535 7.68256 6.72234 7.92911C5.91934 8.17565 5.1915 8.62201 4.60643 9.22669C3.63619 10.3466 3.10183 11.7808 3.10183 13.265C3.10183 14.7492 3.63619 16.1834 4.60643 17.3033C5.07656 17.7952 5.64193 18.1855 6.26783 18.4501C6.89373 18.7147 7.56692 18.8479 8.24601 18.8416C9.2841 18.8659 10.3038 18.5638 11.1625 17.9777C12.0211 17.3915 12.6758 16.5506 13.0349 15.5726Z" fill="white"/>
<path d="M17.7834 21.453V5.08096H30.4858V21.453H27.4064V8.00454H20.8628V21.453H17.7834Z" fill="white"/>
<path d="M31.6149 21.453L38.2058 5.08096H41.1136L47.7046 21.453H44.4091L42.8583 17.165H36.655L34.9103 21.453H31.6149ZM39.1751 10.5383L37.6242 14.4364H41.889L40.3382 10.5383V9.95358L39.9505 8.78414L39.5628 9.95358L39.1751 10.5383Z" fill="white"/>
<path d="M61.213 15.5765L63.512 17.3084C62.6882 18.6255 61.6523 19.796 60.4467 20.7722C59.1378 21.4247 57.6929 21.7545 56.2318 21.7344C54.0312 21.7542 51.9064 20.9281 50.2926 19.4252C49.5199 18.6047 48.9184 17.6371 48.5236 16.5796C48.1288 15.522 47.9486 14.3958 47.9936 13.2672C47.9936 11.0216 48.8818 8.86797 50.4627 7.28007C52.0435 5.69218 54.1877 4.80011 56.4234 4.80011C57.9698 4.77164 59.4943 5.1711 60.8298 5.95473C61.9664 6.73937 62.8887 7.79806 63.512 9.0337L61.0214 10.9581C60.6391 9.99501 59.9787 9.16884 59.1252 8.58586C58.2717 8.00287 57.264 7.6897 56.2318 7.68664C54.8634 7.696 53.5546 8.24953 52.5917 9.22609C51.6213 10.3468 51.0869 11.782 51.0869 13.2672C51.0869 14.7525 51.6213 16.1877 52.5917 17.3084C53.2153 17.9074 53.9736 18.3466 54.8022 18.5885C55.6308 18.8304 56.5053 18.8679 57.3515 18.698C58.1976 18.528 58.9904 18.1555 59.6627 17.6121C60.3349 17.0686 60.8668 16.3704 61.213 15.5765Z" fill="white"/>
<path d="M65.7702 21.453V5.08096H109.611V7.80962H68.874V11.7077H109.029V14.4364H68.874V18.7243H109.805V21.453H65.7702Z" fill="white"/>
<path d="M109.805 0V2.82276H65.7702V0H109.805Z" fill="white"/>
<path d="M112.063 21.453V5.08096H115.373L120.434 18.1395L125.691 5.08096H129V21.453H125.885V11.5128L125.496 12.8772L125.107 14.0465L121.992 21.453H119.072L115.762 14.0465V12.8772L115.178 11.5128V21.453H112.063Z" fill="white"/>
<path d="M0.564545 49.116V33.0263H12.9847V49.116H10.1185V35.8994H3.62182V49.116H0.564545Z" fill="white"/>
<path d="M15.2429 49.0071L15.818 46.2966H16.7765C17.0511 46.3005 17.318 46.205 17.5289 46.0274C17.7399 45.8499 17.881 45.602 17.9268 45.3285L19.2687 32.744H51.0919V49.2007H48.2163V35.6481H21.9526L20.8024 46.2966C20.6561 47.1692 20.2556 47.9781 19.6521 48.6199C19.3699 48.8851 19.0379 49.0904 18.6756 49.2234C18.3134 49.3564 17.9283 49.4146 17.5433 49.3943L15.2429 49.0071Z" fill="white"/>
<path d="M55.0438 49.116L61.6348 33.0263H64.5425L71.1335 49.116H67.838L66.2872 44.902H60.0839L58.3393 49.116H55.0438ZM62.604 38.3895L61.0532 42.2204H65.3179L63.7671 38.3895V37.8149L63.3794 36.6656L62.9917 37.8149L62.604 38.3895Z" fill="white"/>
<path d="M72.5449 49.116V33.0263H75.4714V39.5388H82.6901V33.0263H85.8118V49.116H82.6901V42.4119H75.4714V49.116H72.5449Z" fill="white"/>
<path d="M88.9168 49.116V33.0263H100.016V35.7079H91.9789V39.5388H99.4423V42.2204H91.9789V46.4344H100.208V49.116H88.9168Z" fill="white"/>
<path d="M101.902 35.8994V33.0263H114.886V35.8994H109.922V49.116H106.866V35.8994H101.902Z" fill="white"/>
<path d="M118.222 49.2033L118.8 46.1051H119.569C119.696 46.1332 119.827 46.1353 119.954 46.1113C120.082 46.0873 120.203 46.0376 120.311 45.9653C120.419 45.8929 120.511 45.7994 120.582 45.6904C120.653 45.5813 120.701 45.4589 120.724 45.3305L121.494 43.3941L116.298 32.744H119.762L123.034 39.715L125.728 32.744H129L123.226 46.8796C123.05 47.6129 122.629 48.263 122.033 48.7213C121.438 49.1795 120.704 49.4181 119.954 49.397L118.222 49.2033Z" fill="white"/>
<path d="M0.564545 77.0497V60.6912H44.7623C46.1064 60.6605 47.4339 60.9969 48.6056 61.6649C49.0278 62.0637 49.365 62.5459 49.5963 63.0818C49.8277 63.6177 49.9483 64.1959 49.9508 64.7808C49.9674 65.1422 49.9074 65.5031 49.7748 65.839C49.6422 66.1749 49.4401 66.4782 49.1821 66.7283C49.0351 67.0524 48.8222 67.3414 48.5572 67.5763C48.2923 67.8113 47.9814 67.9868 47.6448 68.0914C48.3657 68.3625 49.0044 68.8194 49.4977 69.4171C49.991 70.0148 50.322 70.7326 50.4578 71.4996C50.5937 72.2666 50.5297 73.0562 50.2723 73.7905C50.0148 74.5248 49.5729 75.1783 48.99 75.6865C47.7972 76.6582 46.2898 77.1442 44.7623 77.0497H0.564545ZM3.63918 63.4176V67.1177H44.5702C44.8825 67.1446 45.1969 67.1066 45.4943 67.0062C45.7916 66.9057 46.0657 66.7449 46.2996 66.5335C46.684 66.3388 46.8762 65.9493 46.8762 65.1703C46.8842 64.9142 46.8368 64.6594 46.7372 64.4239C46.6376 64.1884 46.4882 63.9778 46.2996 63.8071L44.5702 63.4176H3.63918ZM3.63918 69.8442V74.3233H44.5702C46.4918 74.3233 47.4526 73.5443 47.4526 71.9863C47.4526 70.6231 46.4918 69.8442 44.5702 69.8442H3.63918Z" fill="white"/>
<path d="M53.0678 77.0613V60.6893H56.1826L61.4388 73.7479L66.6949 60.6893H70.0044V77.0613H66.8896V67.1211L66.5003 68.4855L66.1109 69.6549L62.9962 77.0613H60.0761L56.7667 69.6549L56.3773 68.4855L55.9879 67.1211V77.0613H53.0678Z" fill="white"/>
<path d="M73.1094 77.0613V60.6893H84.1182V63.4179H76.1463V67.316H83.3589V70.0447H76.1463V74.3326H84.1182V77.0613H73.1094Z" fill="white"/>
<path d="M99.0096 71.1852L101.337 72.9165C100.563 74.2768 99.5051 75.4574 98.2338 76.3793C96.9088 77.0316 95.4461 77.3614 93.9669 77.3412C92.89 77.3674 91.819 77.1762 90.8188 76.7794C89.8186 76.3826 88.9101 75.7883 88.1484 75.0326C87.3662 74.2124 86.7572 73.2452 86.3575 72.1879C85.9578 71.1307 85.7754 70.0049 85.821 68.8767C85.7677 67.7766 85.9472 66.6775 86.348 65.6504C86.7489 64.6233 87.3622 63.6908 88.1484 62.9131C88.9076 62.0884 89.8387 61.4376 90.8769 61.0057C91.9152 60.5739 93.0357 60.3713 94.1608 60.4121C95.7264 60.3837 97.2697 60.783 98.6218 61.5664C99.7723 62.3508 100.706 63.4092 101.337 64.6444L98.8157 66.5682C98.4878 65.6051 97.8607 64.7698 97.0244 64.1822C96.1881 63.5946 95.1856 63.285 94.1608 63.2978C92.7203 63.3168 91.3382 63.8652 90.2818 64.8368C89.4006 66.0023 88.9243 67.4198 88.9243 68.8767C88.9243 70.3335 89.4006 71.751 90.2818 72.9165C91.3382 73.8881 92.7203 74.4365 94.1608 74.4555C95.2119 74.4798 96.2444 74.1776 97.1138 73.5912C97.9831 73.0049 98.6459 72.1636 99.0096 71.1852Z" fill="white"/>
<path d="M102.748 63.6128V60.6893H115.733V63.6128H110.694V77.0613H107.593V63.6128H102.748Z" fill="white"/>
<path d="M117.709 77.0613V60.6893H128.805V63.4179H120.629V67.316H128.221V70.0447H120.629V74.3326H129V77.0613H117.709Z" fill="white"/>
</svg>
