<svg width="321" height="311" viewBox="0 0 321 311" fill="none" xmlns="http://www.w3.org/2000/svg">
<path fill-rule="evenodd" clip-rule="evenodd" d="M0 288.75H2V299C2 304.523 6.47716 309 12 309H22.6072V311H12C5.37259 311 0 305.627 0 299V288.75ZM22.6071 0H12C5.37258 0 0 5.37258 0 12V22.25H2V12C2 6.47715 6.47715 2 12 2H22.6071V0ZM0 268.25H2V247.75H0V268.25ZM0 227.25H2V206.75H0V227.25ZM0 186.25H2V165.75H0V186.25ZM0 145.25H2V124.75H0V145.25ZM0 104.25H2V83.75H0V104.25ZM0 63.25H2V42.75H0V63.25ZM43.8214 0V2H65.0357V0H43.8214ZM86.25 0V2H107.464V0H86.25ZM128.679 0V2H149.893V0H128.679ZM171.107 0V2H192.321V0H171.107ZM213.536 0V2H234.75V0H213.536ZM255.964 0V2H277.179V0H255.964ZM298.393 0V2H309C314.523 2 319 6.47715 319 12V22.25H321V12C321 5.37258 315.627 0 309 0H298.393ZM321 42.75H319V63.25H321V42.75ZM321 83.75H319V104.25H321V83.75ZM321 124.75H319V145.25H321V124.75ZM321 165.75H319V186.25H321V165.75ZM321 206.75H319V227.25H321V206.75ZM321 247.75H319V268.25H321V247.75ZM321 288.75H319V299C319 304.523 314.523 309 309 309H298.393V311H309C315.627 311 321 305.627 321 299V288.75ZM277.179 311V309H255.964V311H277.179ZM234.75 311V309H213.536V311H234.75ZM192.321 311V309H171.107V311H192.321ZM149.893 311V309H128.679V311H149.893ZM107.464 311V309H86.25V311H107.464ZM65.0358 311V309H43.8215V311H65.0358Z" fill="#515151"/>
</svg>
