<svg width="387" height="367" viewBox="0 0 387 367" fill="none" xmlns="http://www.w3.org/2000/svg">
<path fill-rule="evenodd" clip-rule="evenodd" d="M13 2C6.92487 2 2 6.92487 2 13V22.4722H0V13C0 5.82031 5.8203 0 13 0H23.0278V2H13ZM63.1389 2H43.0833V0H63.1389V2ZM103.25 2H83.1944V0H103.25V2ZM143.361 2H123.306V0H143.361V2ZM183.472 2H163.417V0H183.472V2ZM223.583 2H203.528V0H223.583V2ZM263.694 2H243.639V0H263.694V2ZM303.806 2H283.75V0H303.806V2ZM343.917 2H323.861V0H343.917V2ZM374 2H363.972V0H374C381.18 0 387 5.8203 387 13V22.4722H385V13C385 6.92487 380.075 2 374 2ZM2 41.4167V60.3611H0V41.4167H2ZM385 60.3611V41.4167H387V60.3611H385ZM385 98.25V79.3056H387V98.25H385ZM2 79.3056V98.25H0V79.3056H2ZM385 136.139V117.194H387V136.139H385ZM2 117.194V136.139H0V117.194H2ZM385 174.028V155.083H387V174.028H385ZM2 155.083V174.028H0V155.083H2ZM385 211.917V192.972H387V211.917H385ZM2 192.972V211.917H0V192.972H2ZM385 249.806V230.861H387V249.806H385ZM2 230.861V249.806H0V230.861H2ZM385 287.694V268.75H387V287.694H385ZM2 268.75V287.694H0V268.75H2ZM2 306.639V325.583H0V306.639H2ZM385 325.583V306.639H387V325.583H385ZM2 344.528V354C2 360.075 6.92486 365 13 365H23.0278V367H13C5.82029 367 0 361.18 0 354V344.528H2ZM385 354V344.528H387V354C387 361.18 381.18 367 374 367H363.972V365H374C380.075 365 385 360.075 385 354ZM43.0834 365H63.1389V367H43.0834V365ZM83.1945 365H103.25V367H83.1945V365ZM123.306 365H143.361V367H123.306V365ZM163.417 365H183.472V367H163.417V365ZM203.528 365H223.583V367H203.528V365ZM243.639 365H263.694V367H243.639V365ZM283.75 365H303.806V367H283.75V365ZM323.861 365H343.917V367H323.861V365Z" fill="#373737"/>
</svg>
