<svg width="318" height="351" viewBox="0 0 318 351" fill="none" xmlns="http://www.w3.org/2000/svg">
<path fill-rule="evenodd" clip-rule="evenodd" d="M13 2C6.92487 2 2 6.92487 2 13V23.1562H0V13C0 5.8203 5.8203 0 13 0H23.4286V2H13ZM65.1429 2H44.2857V0H65.1429V2ZM106.857 2H86V0H106.857V2ZM148.571 2H127.714V0H148.571V2ZM190.286 2H169.429V0H190.286V2ZM232 2H211.143V0H232V2ZM273.714 2H252.857V0H273.714V2ZM305 2H294.571V0H305C312.18 0 318 5.8203 318 13V23.1562H316V13C316 6.92487 311.075 2 305 2ZM2 43.4688V63.7812H0V43.4688H2ZM316 63.7812V43.4688H318V63.7812H316ZM2 84.0938V104.406H0V84.0938H2ZM316 104.406V84.0938H318V104.406H316ZM2 124.719V145.031H0V124.719H2ZM316 145.031V124.719H318V145.031H316ZM2 165.344V185.656H0V165.344H2ZM316 185.656V165.344H318V185.656H316ZM2 205.969V226.281H0V205.969H2ZM316 226.281V205.969H318V226.281H316ZM2 246.594V266.906H0V246.594H2ZM316 266.906V246.594H318V266.906H316ZM2 287.219V307.531H0V287.219H2ZM316 307.531V287.219H318V307.531H316ZM2 327.844V338C2 344.075 6.92486 349 13 349H23.4285V351H13C5.82029 351 0 345.18 0 338V327.844H2ZM316 338V327.844H318V338C318 345.18 312.18 351 305 351H294.571V349H305C311.075 349 316 344.075 316 338ZM44.2857 349H65.1428V351H44.2857V349ZM86 349H106.857V351H86V349ZM127.714 349H148.571V351H127.714V349ZM169.429 349H190.286V351H169.429V349ZM211.143 349H232V351H211.143V349ZM252.857 349H273.714V351H252.857V349Z" fill="#373737"/>
</svg>
