<svg width="327" height="592" viewBox="0 0 327 592" fill="none" xmlns="http://www.w3.org/2000/svg">
<path fill-rule="evenodd" clip-rule="evenodd" d="M320 11.2401C317.532 10.772 315.667 8.60405 315.667 6.00033C315.667 3.05481 318.054 0.666992 321 0.666992C323.946 0.666992 326.333 3.05481 326.333 6.00033C326.333 8.60405 324.468 10.772 322 11.2401V16.2087H320V11.2401ZM322 36.6253V57.042H320V36.6253H322ZM322 77.4587V97.8753H320V77.4587H322ZM322 118.292V137.9H320V118.292H322ZM322 156.7V175.5H320V156.7H322ZM322 194.3V213.1H320V194.3H322ZM322 231.9V250.7H320V231.9H322ZM322 269.5V288.3H320V269.5H322ZM322 307.1V316.5C322 323.68 316.18 329.5 309 329.5L299.125 329.5L299.125 327.5L309 327.5C315.075 327.5 320 322.575 320 316.5V307.1H322ZM230 329.5C223.925 329.5 219 334.424 219 340.5V350.394H217V340.5C217 333.32 222.82 327.5 230 327.5L239.875 327.5L239.875 329.5L230 329.5ZM279.375 329.5L259.625 329.5L259.625 327.5L279.375 327.5V329.5ZM219 370.183V389.971H217V370.183H219ZM219 409.76V419.654C219 426.834 213.18 432.654 206 432.654H196.35V430.654H206C212.075 430.654 217 425.729 217 419.654V409.76H219ZM13 432.654C6.92486 432.654 2 437.579 2 443.654V454.933H0V443.654C0 436.475 5.82029 430.654 13 430.654H22.65V432.654H13ZM61.25 432.654H41.95V430.654H61.25V432.654ZM99.85 432.654H80.55V430.654H99.85V432.654ZM138.45 432.654H119.15V430.654H138.45V432.654ZM177.05 432.654H157.75V430.654H177.05V432.654ZM2 477.491V500.048H0V477.491H2ZM2 522.606V545.164H0V522.606H2ZM241 575.334C238.054 575.334 235.667 572.946 235.667 570C235.667 567.055 238.054 564.667 241 564.667C243.946 564.667 246.333 567.055 246.333 570C246.333 572.946 243.946 575.334 241 575.334ZM2 567.721V579C2 585.075 6.92487 590 13 590H23.8V592H13C5.8203 592 0 586.18 0 579V567.721H2ZM240 579V576.75H242V579C242 580.761 241.649 582.443 241.013 583.977L239.166 583.211C239.703 581.915 240 580.494 240 579ZM229 590C230.493 590 231.915 589.703 233.21 589.166L233.977 591.013C232.442 591.65 230.761 592 229 592H218.2V590H229ZM45.4 590H67V592H45.4V590ZM88.6 590H110.2V592H88.6V590ZM131.8 590H153.4V592H131.8V590ZM175 590H196.6V592H175V590Z" fill="#515151"/>
</svg>
