<svg width="54" height="78" viewBox="0 0 54 78" fill="none" xmlns="http://www.w3.org/2000/svg">
<path fill-rule="evenodd" clip-rule="evenodd" d="M14.5555 0.144209C16.9498 0.748935 19.2248 2.60397 20.3289 4.85195C20.9011 6.01714 20.9687 6.39441 20.9687 8.42469C20.9687 10.403 20.8918 10.8586 20.3705 11.9704C19.2765 14.3026 17.4036 15.9509 14.952 16.7385L13.7032 17.1397L14.7249 17.1546C17.823 17.1998 21.4644 19.1323 23.5048 21.8138C24.0257 22.4982 25.4461 24.8987 26.6615 27.1481L28.8711 31.2381H34.1813C38.9894 31.2381 39.5727 31.2797 40.3551 31.6787C43.0261 33.0412 43.8619 36.2771 42.1268 38.5396C40.7152 40.3805 40.5123 40.4227 32.7209 40.4977C28.2513 40.5408 25.5328 40.4772 24.9316 40.3154C23.7807 40.0055 22.4536 38.8283 21.7407 37.4847C21.4414 36.9206 21.1197 36.4591 21.0259 36.4591C20.9319 36.4591 20.8504 37.4039 20.8443 38.5589C20.8384 39.7138 20.5503 48.5341 20.2043 58.16C19.5031 77.6531 19.6205 76.6612 17.9072 77.5771C17.21 77.9498 16.5686 78 12.5035 78C7.54797 78 7.19786 77.9326 6.11008 76.7685C5.6074 76.2308 5.54042 75.9139 5.39692 73.3987C5.30973 71.8717 5.17283 67.507 5.09268 63.699C4.93261 56.1091 4.82386 54.6197 4.42971 54.6177C3.66751 54.6141 2.35835 54.0581 1.65201 53.438C0.0136375 51.9999 0.0878868 52.6251 0.0120506 39.6475C-0.0288162 32.6435 0.0363426 27.2096 0.175297 26.0748C0.621899 22.4235 2.60583 19.5756 5.74635 18.0772C7.0446 17.4575 7.66127 17.3097 9.34777 17.2137L11.3828 17.0977L10.122 16.7074C9.42838 16.4929 8.50679 16.0986 8.07426 15.8312C6.88204 15.0946 5.44551 13.4209 4.77118 11.9829C4.24262 10.8556 4.16747 10.4112 4.16951 8.42469C4.17155 6.41552 4.24307 6.00942 4.79162 4.88918C6.17411 2.06644 8.98222 0.180983 12.0471 0.0173163C12.958 -0.0312616 14.0867 0.0259423 14.5555 0.144209ZM10.8213 3.35716C9.60888 3.72036 8.04884 5.14569 7.57726 6.32132C6.0045 10.2411 9.09053 14.3921 13.2155 13.9051C17.0217 13.4559 19.1385 9.29909 17.3357 5.81375C16.8991 4.96953 15.2544 3.58211 14.3934 3.33173C13.3894 3.04004 11.8437 3.05094 10.8213 3.35716ZM7.68647 20.5796C6.42477 21.0377 5.09745 22.0447 4.4338 23.0473C3.19366 24.9207 3.14553 25.4978 3.14553 38.4994C3.14553 52.3988 2.98409 51.4411 5.32563 51.4411C6.5594 51.4411 6.88363 51.5257 7.32001 51.962C7.89603 52.5379 7.96324 53.5819 8.25908 66.5365C8.32765 69.5329 8.43936 72.6231 8.50724 73.4033L8.63076 74.822H12.5861H16.5413L16.5499 73.4033C16.5545 72.6231 16.8962 62.5545 17.3087 51.0291C18.0371 30.6865 18.0727 30.06 18.5268 29.606C19.1101 29.0228 20.0869 29.0033 20.6325 29.564C20.8604 29.798 21.9294 31.5219 23.0078 33.3946C24.0863 35.2674 25.1355 36.9274 25.3394 37.0834C25.6164 37.2954 27.3898 37.3671 32.3644 37.3671C38.7163 37.3671 39.0396 37.3465 39.4731 36.9131C40.245 36.1413 40.0309 35.0529 39.0026 34.5212C38.4906 34.2563 37.2396 34.1891 32.8299 34.1891C28.7503 34.1891 27.2041 34.1147 26.9367 33.9054C26.7371 33.7494 25.4152 31.4765 23.9989 28.8546C22.0424 25.2331 21.1381 23.7987 20.2354 22.8852C18.9573 21.592 17.192 20.6502 15.456 20.3351C13.9611 20.0639 8.64642 20.2312 7.68647 20.5796ZM41.229 43.1874C41.633 43.3865 42.6747 44.2979 43.5438 45.2127C46.1008 47.904 46.0436 48.8092 43.1319 51.7248C41.1512 53.7081 41.1466 53.7111 39.9787 53.7111C38.9388 53.7111 38.6782 53.6039 37.6303 52.7463C35.1269 50.697 34.1758 49.0442 34.5779 47.4423C34.6633 47.102 35.4675 46.0619 36.3652 45.1305C38.5694 42.8437 39.6533 42.4106 41.229 43.1874ZM38.7349 49.4492L39.9213 50.6352L41.0601 49.5138L42.199 48.3922L41.0115 47.1901L39.8241 45.9881L38.6863 47.1256L37.5486 48.2631L38.7349 49.4492ZM53.4321 48.8056C53.7466 49.12 54.0023 49.5098 54 49.6716C53.9977 49.8332 53.2998 55.799 52.4493 62.9288C51.037 74.7644 50.8567 75.9566 50.3761 76.6312C49.442 77.9428 49.0665 78 41.3952 78C36.6947 78 34.2878 77.9174 33.9522 77.7446C33.1923 77.3533 32.4083 76.5813 32.1858 76.0049C31.9192 75.3153 28.9921 50.6066 29.0766 49.7611C29.2178 48.3489 31.1395 47.8127 31.7914 49.0036C31.9444 49.283 32.7423 55.1809 33.5642 62.11L35.059 74.7085L41.4459 74.7687L47.8327 74.829L47.963 73.9742C48.0348 73.5041 48.7139 67.8077 49.472 61.3155C50.9507 48.6515 50.9925 48.4569 52.2626 48.3051C52.6645 48.2572 53.0473 48.4208 53.4321 48.8056ZM46.2166 56.653C47.3875 57.3667 47.6468 58.1328 47.6468 60.8802C47.6468 64.7646 46.8866 65.5157 42.958 65.5141C39.2451 65.5128 38.3401 64.6079 38.3387 60.8958C38.3371 56.9301 39.0526 56.2096 42.9923 56.2096C45.0698 56.2096 45.612 56.2843 46.2166 56.653ZM41.5165 60.748V62.337H43.1058H44.6951V60.8995C44.6951 60.1086 44.627 59.3935 44.5437 59.3105C44.4606 59.2271 43.7454 59.159 42.9544 59.159H41.5165V60.748Z" fill="white"/>
</svg>
