<svg width="76" height="78" viewBox="0 0 76 78" fill="none" xmlns="http://www.w3.org/2000/svg">
<path fill-rule="evenodd" clip-rule="evenodd" d="M23.6851 7.11791L31.8155 14.2297L26.3571 19.7783C23.3549 22.83 20.8038 25.3249 20.6879 25.3226C20.5721 25.3203 19.5065 24.2034 18.32 22.8406C16.266 20.4814 16.146 20.3781 15.811 20.6804C15.5887 20.8813 15.4593 21.26 15.4593 21.7107C15.4593 22.3659 15.7822 22.7921 19.4777 27.0127L23.496 31.602H44.8402C64.8857 31.602 66.2091 31.6221 66.5914 31.9352C67.1394 32.384 75.7731 47.9104 75.904 48.6825C75.9889 49.1836 76.1336 49.4399 75.7255 49.8451L75.7265 50.2504C75.7265 50.2504 75.7257 50.2504 75.579 50.5953C75.3186 51.0609 72.4734 66.247 72.2923 66.7084C72.0146 67.4154 71.1319 67.7798 69.6976 67.7798H68.5757L68.8572 68.8747C69.6168 71.8295 67.8501 75.5209 64.9338 77.0716C62.0157 78.6233 58.602 78.1987 56.0619 75.968L55.1997 75.211L54.3673 75.9756C50.4909 79.5363 44.4211 78.2368 42.1318 73.3562C41.6373 72.3017 41.5346 71.8449 41.5239 70.6478C41.5169 69.8559 41.5791 68.888 41.6621 68.4969L41.8135 67.7859L36.6569 67.7353L31.5006 67.6846L33.0385 66.0185L34.5764 64.3524H39.2839H43.9915L45.5922 63.5432C47.1771 62.742 47.2129 62.734 49.2232 62.734C51.1215 62.734 51.3341 62.7736 52.4897 63.3421C53.1695 63.6767 54.0629 64.2955 54.475 64.7175L55.2243 65.4844L56.1511 64.6194C56.6608 64.1438 57.5689 63.5249 58.1692 63.2443C59.1404 62.7901 59.4859 62.734 61.3101 62.734C63.0413 62.734 63.3467 62.6896 63.2768 62.4483C63.2314 62.2913 61.4983 56.0578 59.4256 48.596L55.6571 35.0293H41.0741H26.4911L27.4446 36.1242C27.969 36.7265 30.732 39.8753 33.5846 43.1217C36.4373 46.3682 38.9562 49.3672 39.1823 49.7861C39.77 50.8745 39.7677 53.0703 39.1778 54.2607C38.73 55.164 27.3421 67.161 27.0302 67.0578C26.9386 67.0275 26.9289 67.1561 27.0087 67.3436C27.0884 67.5312 27.2844 68.2414 27.4446 68.9219C28.1593 71.9629 26.4491 75.5131 23.5183 77.0716C20.5076 78.6726 16.8714 78.156 14.5004 75.7907C13.5362 74.8286 12.5086 72.9913 12.2918 71.8418L12.1783 71.239L8.0453 71.1733C3.98543 71.1089 3.89516 71.0987 2.93192 70.5939C2.39256 70.3111 1.63925 69.7161 1.25774 69.2715C0.0830231 67.9023 0 67.3253 0 60.5267C0 55.1619 0.0396957 54.3605 0.354988 53.3732C0.888618 51.7022 5.75428 43.3051 6.81104 42.2314C7.2981 41.7365 8.20563 41.1021 8.85377 40.8033L10.0199 40.2656H17.1292H24.2388L24.2386 38.9721V37.6789L18.5606 31.2051C15.1701 27.3394 12.7108 24.3702 12.4558 23.8347C11.6702 22.1852 11.9256 20.0721 13.0955 18.5431C13.7648 17.6683 13.7671 17.6584 13.4057 17.2534C13.2053 17.0289 11.5124 15.101 9.64353 12.9694L6.24593 9.09341L10.8034 4.54376C13.31 2.04139 15.4045 -0.00342308 15.4577 4.30228e-06C15.511 0.00324127 19.2134 3.20632 23.6851 7.11791ZM13.2837 7.01965L11.0188 9.28534L13.6507 12.2702L16.2824 15.2549L18.0646 13.4845L19.8466 11.7138L20.9929 12.8454C21.6233 13.4679 22.1392 14.0639 22.1392 14.1699C22.1392 14.276 21.3552 15.1481 20.3971 16.1081C18.4322 18.0764 18.4662 17.785 20.0007 19.5163L20.8206 20.4411L23.7708 17.5025C25.3933 15.8861 26.6976 14.4938 26.6689 14.4081C26.6092 14.2295 15.7963 4.7612 15.6471 4.75701C15.5931 4.75549 14.5294 5.77361 13.2837 7.01965ZM32.2161 18.2786C33.1633 19.1589 32.8328 20.7747 31.6407 21.0911C30.4072 21.4186 29.3917 20.6821 29.3917 19.4599C29.3917 18.1061 31.2117 17.3448 32.2161 18.2786ZM39.1205 21.6959C40.0183 22.5916 39.8173 23.8818 38.6949 24.4296C38.0019 24.7679 37.9584 24.7679 37.2654 24.4296C35.6109 23.6221 36.1399 21.3198 37.9801 21.3198C38.4857 21.3198 38.8709 21.4468 39.1205 21.6959ZM28.8975 21.9057C29.4619 22.5748 29.511 23.0126 29.1086 23.7887C28.5571 24.8531 26.9577 24.9466 26.2618 23.9553C25.036 22.2092 27.5226 20.2754 28.8975 21.9057ZM34.0506 23.6194C34.6131 24.2862 34.664 24.7264 34.2674 25.4915C33.4504 27.0679 31.1094 26.4078 31.1094 24.601C31.1094 23.0956 33.0599 22.4446 34.0506 23.6194ZM37.486 27.0468C38.2878 27.9975 38.0905 29.0535 37.0062 29.6127C35.5315 30.3736 33.9865 28.8145 34.7667 27.3528C35.1059 26.7176 35.5263 26.4736 36.2932 26.467C36.8432 26.4622 37.0971 26.5856 37.486 27.0468ZM30.5515 27.0175C31.1723 27.637 31.2443 28.1237 30.8321 28.9189C30.2788 29.9863 28.7998 30.1225 28.0526 29.1748C26.7048 27.4653 29.0077 25.4772 30.5515 27.0175ZM15.7719 33.268L17.2579 34.9341L13.2077 34.9855L9.1578 35.0369L6.54099 36.7649C4.1948 38.3143 3.85546 38.4818 3.26171 38.3857C2.32786 38.2345 1.82172 37.6652 1.82172 36.7661C1.82172 36.3611 1.94864 35.8742 2.1038 35.6843C2.25877 35.4943 3.67091 34.4981 5.24164 33.4704L8.09741 31.602H11.1916H14.2859L15.7719 33.268ZM63.2984 49.6433C65.5375 57.6809 67.3699 64.2831 67.3707 64.3148C67.3712 64.3465 67.8198 64.3465 68.3671 64.3148L69.3622 64.2572L70.8776 56.6409L72.3928 49.0245L68.4986 42.0305L64.6044 35.0364L61.9158 35.0329L59.2275 35.0293L63.2984 49.6433ZM27.7184 56.5723L27.7694 61.5496L31.9115 57.2601C34.4138 54.6688 36.105 52.766 36.1836 52.4539C36.2617 52.1436 36.2081 51.7241 36.0495 51.4027C35.9042 51.1085 33.9817 48.8061 31.7774 46.286L27.7694 41.704L27.7184 46.6495C27.6906 49.3695 27.6906 53.8348 27.7184 56.5723ZM15.4593 49.4053C15.323 57.559 15.6753 57.1649 8.39762 57.3073L3.53082 57.4025L3.47948 61.7812C3.44341 64.8435 3.49628 66.3245 3.65545 66.7076C4.04212 67.6391 4.72023 67.7798 8.82094 67.7794L12.501 67.7789L13.0434 66.743C13.7366 65.4197 15.3423 63.904 16.747 63.2473C17.7308 62.7873 18.0631 62.734 19.9444 62.734C21.8607 62.734 22.1325 62.7797 23.0614 63.2576C23.6212 63.5455 24.1149 63.7812 24.1588 63.7812C24.2027 63.7812 24.2355 59.5612 24.2319 54.4035C24.2266 46.9855 24.1722 44.9308 23.9722 44.5708C23.4784 43.6819 23.0715 43.6037 19.1809 43.6499L15.5547 43.693L15.4593 49.4053ZM10.2107 43.9559C9.79086 44.1482 9.30743 44.4678 9.13662 44.6658C8.8824 44.9603 4.84009 51.9143 4.02953 53.4515L3.80374 53.8799H7.9138H12.0239V48.7388V43.5978L11.499 43.602C11.2104 43.6042 10.6306 43.7634 10.2107 43.9559ZM59.5884 66.3618C58.0182 67.0163 57.0275 68.5186 57.0275 70.2455C57.0275 72.2836 58.148 73.8131 60.0437 74.3629C61.4276 74.7642 62.5165 74.6003 63.6847 73.8145C66.4445 71.958 66.0419 67.6919 62.9822 66.3697C62.1105 65.993 60.4823 65.9892 59.5884 66.3618ZM47.362 66.4317C45.1748 67.5449 44.2816 70.1066 45.3472 72.2101C46.9975 75.4678 51.7372 75.2959 53.1438 71.9273C53.7587 70.4547 53.4089 68.4733 52.3319 67.3274C51.1734 66.0949 48.8474 65.6756 47.362 66.4317ZM18.1728 66.3618C17.2722 66.7371 16.4822 67.4836 16.0043 68.4107C15.5497 69.2926 15.4978 71.0465 15.8982 72.0024C16.5832 73.638 18.7196 74.8181 20.5106 74.5502C22.9246 74.189 24.6213 71.688 24.0535 69.3273C23.7754 68.1706 22.7406 66.9091 21.6727 66.4252C20.7207 65.9938 19.1252 65.965 18.1728 66.3618Z" fill="white"/>
</svg>
